<svg width="144" height="144" viewBox="0 0 144 144" fill="none" xmlns="http://www.w3.org/2000/svg">
<path d="M43.4366 60.7638C43.4366 62.3841 43.6118 63.6978 43.9183 64.6612C44.2687 65.6247 44.7066 66.6757 45.3197 67.8142C45.5386 68.1646 45.6262 68.5149 45.6262 68.8214C45.6262 69.2594 45.3635 69.6973 44.7942 70.1352L42.0353 71.9744C41.6412 72.2372 41.2471 72.3685 40.8967 72.3685C40.4588 72.3685 40.0209 72.1496 39.583 71.7555C38.9699 71.0986 38.4444 70.3979 38.0065 69.6973C37.5686 68.9528 37.1307 68.1208 36.649 67.1136C33.2332 71.1424 28.9416 73.1568 23.7743 73.1568C20.0958 73.1568 17.1617 72.1058 15.016 70.0038C12.8702 67.9018 11.7754 65.0992 11.7754 61.5958C11.7754 57.8736 13.0891 54.852 15.7604 52.5748C18.4317 50.2976 21.9788 49.1591 26.4893 49.1591C27.9782 49.1591 29.5109 49.2904 31.1312 49.5094C32.7515 49.7284 34.4156 50.0787 36.1672 50.4728V47.276C36.1672 43.9479 35.4666 41.6269 34.109 40.2694C32.7077 38.9119 30.343 38.255 26.971 38.255C25.4383 38.255 23.8618 38.4301 22.2416 38.8243C20.6213 39.2184 19.0448 39.7001 17.5121 40.3132C16.8114 40.6197 16.2859 40.7949 15.9794 40.8825C15.6728 40.9701 15.4539 41.0138 15.2787 41.0138C14.6656 41.0138 14.3591 40.5759 14.3591 39.6563V37.5105C14.3591 36.8099 14.4467 36.2844 14.6656 35.9778C14.8846 35.6713 15.2787 35.3647 15.8918 35.0582C17.4245 34.27 19.2637 33.6131 21.4095 33.0876C23.5553 32.5183 25.8325 32.2556 28.241 32.2556C33.4522 32.2556 37.262 33.4379 39.7144 35.8027C42.1229 38.1674 43.349 41.7583 43.349 46.5754V60.7638H43.4366ZM25.6573 67.4201C27.1024 67.4201 28.5913 67.1574 30.1678 66.6319C31.7443 66.1064 33.1456 65.143 34.328 63.8292C35.0287 62.9972 35.5542 62.0775 35.8169 61.0266C36.0797 59.9756 36.2548 58.7056 36.2548 57.2167V55.3775C34.9849 55.0709 33.6273 54.8082 32.226 54.633C30.8247 54.4578 29.4671 54.3702 28.1096 54.3702C25.1756 54.3702 23.0298 54.9395 21.5847 56.1219C20.1396 57.3043 19.4389 58.9684 19.4389 61.1579C19.4389 63.2161 19.9644 64.7488 21.0592 65.7998C22.1102 66.8946 23.6429 67.4201 25.6573 67.4201ZM60.8218 72.1496C60.0336 72.1496 59.5081 72.0182 59.1578 71.7117C58.8074 71.4489 58.5009 70.8358 58.2381 70.0038L47.9471 36.153C47.6844 35.2772 47.553 34.7079 47.553 34.4013C47.553 33.7007 47.9034 33.3065 48.604 33.3065H52.8956C53.7276 33.3065 54.2969 33.4379 54.6035 33.7445C54.9538 34.0072 55.2165 34.6203 55.4793 35.4523L62.8363 64.4423L69.6677 35.4523C69.8867 34.5765 70.1494 34.0072 70.4998 33.7445C70.8501 33.4817 71.4632 33.3065 72.2514 33.3065H75.7547C76.5868 33.3065 77.1561 33.4379 77.5064 33.7445C77.8567 34.0072 78.1633 34.6203 78.3384 35.4523L85.2575 64.7926L92.8334 35.4523C93.0962 34.5765 93.4027 34.0072 93.7092 33.7445C94.0596 33.4817 94.6289 33.3065 95.4171 33.3065H99.4897C100.19 33.3065 100.584 33.6569 100.584 34.4013C100.584 34.6203 100.541 34.8392 100.497 35.102C100.453 35.3647 100.366 35.7151 100.19 36.1968L89.6366 70.0476C89.3739 70.9234 89.0673 71.4927 88.717 71.7555C88.3667 72.0182 87.7974 72.1934 87.0529 72.1934H83.2869C82.4548 72.1934 81.8855 72.062 81.5352 71.7555C81.1849 71.4489 80.8783 70.8796 80.7032 70.0038L73.9155 41.7583L67.1716 69.96C66.9527 70.8358 66.6899 71.4051 66.3396 71.7117C65.9892 72.0182 65.3762 72.1496 64.5879 72.1496H60.8218ZM117.094 73.332C114.817 73.332 112.54 73.0692 110.35 72.5437C108.16 72.0182 106.453 71.4489 105.314 70.7921C104.613 70.3979 104.132 69.96 103.956 69.5659C103.781 69.1718 103.694 68.7339 103.694 68.3397V66.1064C103.694 65.1867 104.044 64.7488 104.701 64.7488C104.964 64.7488 105.226 64.7926 105.489 64.8802C105.752 64.9678 106.146 65.143 106.584 65.3181C108.073 65.975 109.693 66.5005 111.401 66.8508C113.153 67.2012 114.861 67.3763 116.612 67.3763C119.371 67.3763 121.517 66.8946 123.006 65.9312C124.495 64.9678 125.283 63.5665 125.283 61.771C125.283 60.5448 124.889 59.5376 124.101 58.7056C123.312 57.8736 121.823 57.1291 119.678 56.4284L113.328 54.4578C110.131 53.4506 107.766 51.9617 106.321 49.9911C104.876 48.0643 104.132 45.9185 104.132 43.6413C104.132 41.8021 104.526 40.1818 105.314 38.7805C106.102 37.3792 107.153 36.153 108.467 35.1896C109.781 34.1824 111.27 33.4379 113.021 32.9124C114.773 32.3869 116.612 32.168 118.539 32.168C119.502 32.168 120.51 32.2118 121.473 32.3431C122.48 32.4745 123.4 32.6497 124.319 32.8248C125.195 33.0438 126.027 33.2628 126.816 33.5255C127.604 33.7883 128.217 34.051 128.655 34.3138C129.268 34.6641 129.706 35.0144 129.969 35.4085C130.231 35.7589 130.363 36.2406 130.363 36.8537V38.9119C130.363 39.8315 130.012 40.3132 129.356 40.3132C129.005 40.3132 128.436 40.138 127.691 39.7877C125.195 38.6491 122.393 38.0798 119.283 38.0798C116.787 38.0798 114.817 38.4739 113.459 39.306C112.102 40.138 111.401 41.408 111.401 43.2034C111.401 44.4296 111.839 45.4806 112.715 46.3126C113.591 47.1447 115.211 47.9767 117.532 48.7211L123.75 50.6918C126.903 51.699 129.18 53.1003 130.538 54.8957C131.895 56.6912 132.552 58.7494 132.552 61.0266C132.552 62.9096 132.158 64.6175 131.414 66.1064C130.625 67.5953 129.574 68.909 128.217 69.96C126.859 71.0548 125.239 71.843 123.356 72.4123C121.385 73.0254 119.327 73.332 117.094 73.332Z" fill="white"/>
<path fill-rule="evenodd" clip-rule="evenodd" d="M125.371 94.6152C110.964 105.257 90.0316 110.906 72.0333 110.906C46.8094 110.906 24.0816 101.578 6.91534 86.0759C5.55781 84.8497 6.78397 83.1856 8.40425 84.1491C26.9718 94.9218 49.8748 101.447 73.566 101.447C89.5499 101.447 107.11 98.1185 123.269 91.2871C125.678 90.1923 127.736 92.8636 125.371 94.6152Z" fill="white"/>
<path fill-rule="evenodd" clip-rule="evenodd" d="M131.372 87.7832C129.533 85.4185 119.198 86.6446 114.512 87.2139C113.111 87.3891 112.892 86.1629 114.162 85.2433C122.395 79.4628 135.926 81.1269 137.503 83.0537C139.079 85.0243 137.065 98.5559 129.358 105.037C128.175 106.044 127.037 105.519 127.562 104.205C129.314 99.8697 133.211 90.1042 131.372 87.7832Z" fill="white"/>
</svg>
