<svg width="64" height="64" viewBox="0 0 64 64" fill="none" xmlns="http://www.w3.org/2000/svg">
<path fill-rule="evenodd" clip-rule="evenodd" d="M31.0494 14.1577C31.4815 14.2824 31.9384 14.3492 32.411 14.3492C32.8853 14.3492 33.3437 14.2819 33.7771 14.1564L48.5409 39.7273C48.2104 40.0423 47.9192 40.4095 47.6801 40.8253C47.4425 41.2386 47.2719 41.6724 47.1647 42.1141H17.6578C17.5507 41.6727 17.3799 41.2389 17.1421 40.8253C16.9022 40.4122 16.6116 40.0471 16.2828 39.7335L31.0494 14.1577ZM28.8943 12.8592C28.9399 12.9064 28.9865 12.9526 29.0339 12.9979L14.2669 38.5745C14.203 38.556 14.1388 38.5387 14.0743 38.5228V25.4749C15.3186 25.1655 16.4397 24.3719 17.1279 23.1746C17.8153 21.9789 17.9427 20.6149 17.5907 19.3855L28.8943 12.8592ZM37.098 10.8577C37.2295 10.415 37.3 9.946 37.3 9.46024C37.3 6.75661 35.1147 4.57129 32.411 4.57129C29.7074 4.57129 27.5221 6.75661 27.5221 9.46024C27.5221 9.94353 27.5919 10.4103 27.722 10.8509L16.4393 17.3652C16.1228 17.031 15.7535 16.7358 15.3348 16.4926C12.9954 15.1478 9.99762 15.9462 8.6528 18.2857C7.30799 20.6251 8.10647 23.6229 10.4459 24.9677C10.8636 25.2078 11.3023 25.3796 11.7489 25.4865V38.5165C11.3075 38.6236 10.8737 38.7944 10.4601 39.0322C8.12068 40.391 7.3222 43.3748 8.66701 45.7142C10.0118 48.0536 12.9956 48.8521 15.349 47.5073C15.7632 47.2667 16.1291 46.9753 16.4433 46.6454L27.7199 53.1562C27.5911 53.5946 27.5221 54.0589 27.5221 54.5395C27.5221 57.2431 29.7074 59.4284 32.411 59.4284C35.1147 59.4284 37.3 57.2291 37.3 54.5395C37.3 54.0009 37.2133 53.4828 37.053 52.9985L48.2639 46.5257C48.6028 46.9063 49.0074 47.2396 49.4732 47.5073C51.8126 48.8521 54.8104 48.0536 56.1553 45.7142C57.5141 43.3748 56.7156 40.391 54.3622 39.0322C53.949 38.7947 53.5153 38.624 53.0737 38.5169V25.4864C53.5202 25.3795 53.9588 25.2078 54.3764 24.9677C56.7158 23.6089 57.5143 20.6251 56.1695 18.2857C54.8106 15.9462 51.8268 15.1478 49.4874 16.4926C49.0666 16.737 48.6957 17.034 48.3781 17.3704L37.098 10.8577ZM35.7915 12.9948C35.8361 12.9521 35.8799 12.9086 35.9229 12.8643L47.2296 19.3924C46.88 20.62 47.0083 21.9812 47.6943 23.1746C48.3826 24.372 49.5039 25.1657 50.7483 25.4749V38.5214C50.6849 38.537 50.6217 38.5539 50.5589 38.5719L35.7915 12.9948ZM47.2598 44.7601L36.0266 51.2458C35.1329 50.2651 33.8449 49.6505 32.411 49.6505C31.0264 49.6505 29.7778 50.2237 28.889 51.146L17.6008 44.6286C17.619 44.5659 17.6359 44.5028 17.6515 44.4394H47.1695C47.1959 44.5473 47.2261 44.6542 47.2598 44.7601Z" fill="white"/>
</svg>
