<svg width="64" height="64" viewBox="0 0 64 64" fill="none" xmlns="http://www.w3.org/2000/svg">
<g clip-path="url(#clip0_576_4461)">
<mask id="mask0_576_4461" style="mask-type:luminance" maskUnits="userSpaceOnUse" x="0" y="0" width="64" height="64">
<path d="M64 0H0V64H64V0Z" fill="white"/>
</mask>
<g mask="url(#mask0_576_4461)">
<path fill-rule="evenodd" clip-rule="evenodd" d="M25.285 4.54542C27.2041 4.20585 29.3851 4.01107 31.669 4.00046C33.9529 3.98984 36.3342 4.1634 38.6292 4.54542C42.2548 5.14969 45.3094 7.86947 45.3094 11.49V24.2115C45.3094 27.942 42.3438 31.0004 38.6292 31.0004H25.285C20.7542 31.0004 16.939 34.8901 16.939 39.2997V45.4036H12.3455C8.46278 45.4036 6.19487 42.5853 5.24518 38.6302C3.96413 33.3166 4.01854 30.1412 5.24518 25.0523C6.3086 20.6128 9.70847 18.279 13.5912 18.279H18.605H31.9649V16.5817H18.605V11.49C18.605 7.63476 19.6315 5.54422 25.285 4.54542ZM26.951 10.6492C26.951 9.24093 25.8241 8.0956 24.4441 8.0956C23.0592 8.0956 21.9372 9.24093 21.9372 10.6492C21.9372 12.0525 23.0592 13.1873 24.4441 13.1873C25.8241 13.1873 26.951 12.0525 26.951 10.6492ZM46.9751 24.2115V18.279H51.9889C55.8769 18.279 57.7094 21.187 58.6689 25.0523C60.0045 30.4208 60.064 34.4452 58.6689 38.6301C57.3187 42.6952 55.872 45.4036 51.9889 45.4036H45.3094H31.9649V47.1009H45.3094V52.1924C45.3094 56.0476 41.9926 58.0076 38.6292 58.9813C33.5693 60.4493 29.5139 60.2249 25.285 58.9813C21.7534 57.9427 18.605 55.8129 18.605 52.1924V39.471C18.605 35.8104 21.6298 32.682 25.285 32.682H38.6292C43.0758 32.682 46.9751 28.8109 46.9751 24.2115ZM41.977 53.0333C41.977 51.6298 40.855 50.4951 39.4701 50.4951C38.0901 50.4951 36.9631 51.6298 36.9631 53.0333C36.9631 54.4413 38.0901 55.5867 39.4701 55.5867C40.855 55.5867 41.977 54.4413 41.977 53.0333Z" fill="white"/>
</g>
</g>
<defs>
<clipPath id="clip0_576_4461">
<rect width="64" height="64" fill="white"/>
</clipPath>
</defs>
</svg>
