<svg width="64" height="64" viewBox="0 0 64 64" fill="none" xmlns="http://www.w3.org/2000/svg">
<path d="M2 31.3077V35.4616C2 35.1154 13.1059 34.4232 13.1059 32.6923V28.5384C13.1059 30.2692 2 30.9615 2 31.3077ZM2 25.7692V29.923C2 29.5769 13.1059 28.8845 13.1059 27.1538V23C13.1059 24.7308 2 25.423 2 25.7692ZM2 36.8462V41C2 40.6538 13.1059 39.9617 13.1059 38.2308V34.0769C13.1059 35.8078 2 36.5 2 36.8462ZM16.0036 35.7283C16.8384 36.1547 18.121 36.5811 19.4445 36.5811C20.8696 36.5811 21.6229 35.9923 21.6229 35.0988C21.6229 34.246 20.9713 33.7585 19.3223 33.1696C17.042 32.3776 15.5557 31.1186 15.5557 29.1285C15.5557 26.7932 17.5102 25.0062 20.7475 25.0062C22.2949 25.0062 23.435 25.3312 24.2494 25.6966L23.5571 28.1944C23.0074 27.9305 22.0301 27.5446 20.6864 27.5446C19.3425 27.5446 18.691 28.1539 18.691 28.8646C18.691 29.7377 19.4647 30.1237 21.2361 30.7938C23.6588 31.6873 24.799 32.9464 24.799 34.8755C24.799 37.1702 23.0277 39.1198 19.2611 39.1198C17.6935 39.1198 16.1461 38.7136 15.3724 38.287L16.0036 35.7283ZM34.409 38.673C33.8593 38.9166 32.821 39.1197 31.64 39.1197C28.4232 39.1197 26.3668 37.1701 26.3668 34.0429C26.3668 31.1391 28.3621 28.7632 32.0676 28.7632C32.882 28.7632 33.7778 28.9053 34.4295 29.1491L33.9408 31.4436C33.5742 31.2813 33.0246 31.1391 32.21 31.1391C30.5813 31.1391 29.5226 32.2965 29.5429 33.9212C29.5429 35.7488 30.7644 36.7032 32.2712 36.7032C33.0042 36.7032 33.5742 36.5813 34.0424 36.3986L34.409 38.673ZM41.861 38.9166L41.6778 37.9215H41.6167C40.9651 38.7135 39.9472 39.1399 38.7663 39.1399C36.7506 39.1399 35.5495 37.6779 35.5495 36.094C35.5495 33.5149 37.8706 32.2762 41.3927 32.2966V32.1544C41.3927 31.6264 41.1078 30.8751 39.5807 30.8751C38.5627 30.8751 37.4838 31.2203 36.8322 31.6265L36.2622 29.6363C36.9544 29.2505 38.3185 28.7632 40.1306 28.7632C43.4492 28.7632 44.5079 30.7126 44.5079 33.0479V36.5C44.5079 37.4545 44.5486 38.3682 44.6505 38.9166L41.861 38.9166ZM41.4945 34.2257C39.8658 34.2053 38.6034 34.5913 38.6034 35.7892C38.6034 36.5812 39.1326 36.9671 39.825 36.9671C40.5986 36.9671 41.2298 36.4595 41.4334 35.8299C41.4741 35.6674 41.4945 35.4847 41.4945 35.3018V34.2257ZM46.9513 24.4987H50.046V38.9166H46.9513V24.4987ZM58.2104 38.9166L58.0273 37.9215H57.9661C57.3145 38.7135 56.2966 39.1399 55.1157 39.1399C53.1001 39.1399 51.8989 37.6779 51.8989 36.094C51.8989 33.5149 54.2199 32.2762 57.7422 32.2966V32.1544C57.7422 31.6264 57.4573 30.8751 55.9302 30.8751C54.9122 30.8751 53.8332 31.2203 53.1817 31.6265L52.6116 29.6363C53.3038 29.2505 54.6679 28.7632 56.48 28.7632C59.7987 28.7632 60.8574 30.7126 60.8574 33.0479V36.5C60.8574 37.4545 60.8981 38.3682 61 38.9166L58.2104 38.9166ZM57.844 34.2257C56.2154 34.2053 54.9529 34.5913 54.9529 35.7892C54.9529 36.5812 55.4822 36.9671 56.1745 36.9671C56.9481 36.9671 57.5793 36.4595 57.7829 35.8299C57.8236 35.6674 57.844 35.4847 57.844 35.3018V34.2257Z" fill="white"/>
</svg>
